<?xml version="1.0" encoding="utf-8"?>
<!DOCTYPE svg PUBLIC "-//W3C//DTD SVG 1.1//EN" "http://www.w3.org/Graphics/SVG/1.1/DTD/svg11.dtd">
<svg version="1.1" viewBox="0 0 1024 1024" xmlns="http://www.w3.org/2000/svg" xmlns:xlink="http://www.w3.org/1999/xlink" height="512px" width="512px">
	<defs>
		<symbol id="icon-adam-hobson" viewBox="0 0 1024 1024">
			<title>Adam Hobson</title>
			<path class="path1" d="M1025 440.334v148c0 5.332-1.78 10.444-5.334 15.332-3.554 4.89-8 7.78-13.332 8.668l-123.334 18.666c-8.444 24-17.112 44.22-26 60.666 15.556 22.22 39.334 52.89 71.334 92 4.444 5.334 6.666 10.89 6.666 16.668 0 5.78-2 10.888-6 15.332-12 16.446-34 40.446-66 72-32 31.556-52.888 47.334-62.666 47.334-5.334 0-11.112-2-17.334-6l-92-72c-19.556 10.22-39.78 18.666-60.666 25.334-7.112 60.444-13.556 101.78-19.334 124-3.112 12.444-11.112 18.666-24 18.666h-148c-6.22 0-11.666-1.888-16.334-5.666-4.666-3.78-7.22-8.556-7.666-14.334l-18.666-122.666c-21.78-7.112-41.78-15.334-60-24.668l-94 71.334c-4.446 4-10 6-16.668 6-6.22 0-11.78-2.444-16.666-7.334-56-50.666-92.666-88-110-112-3.112-4.444-4.666-9.554-4.666-15.332 0-5.334 1.78-10.446 5.332-15.334 6.668-9.334 18-24.112 34-44.334 16-20.22 28-35.888 36-47-12-22.22-21.11-44.22-27.332-66l-122-18c-5.78-0.888-10.446-3.666-14-8.332-3.554-4.668-5.334-9.89-5.334-15.668v-148c0-5.332 1.78-10.444 5.334-15.332 3.554-4.89 7.78-7.78 12.666-8.668l124-18.666c6.22-20.444 14.888-40.888 26-61.334-17.78-25.332-41.556-56-71.334-92-4.444-5.332-6.666-10.666-6.666-16 0-4.444 2-9.554 6-15.332 11.556-16 33.444-39.89 65.666-71.668 32.22-31.778 53.22-47.666 63-47.666 5.78 0 11.556 2.22 17.334 6.666l92 71.334c19.556-10.22 39.78-18.666 60.666-25.334 7.112-60.444 13.556-101.776 19.334-124 3.112-12.446 11.112-18.666 24-18.666h148c6.22 0 11.666 1.888 16.334 5.666 4.666 3.78 7.22 8.556 7.666 14.334l18.666 122.666c21.78 7.112 41.78 15.334 60 24.668l94.668-71.334c4-4 9.332-6 16-6 5.78 0 11.332 2.22 16.666 6.666 57.334 52.89 94 90.668 110 113.334 3.112 3.556 4.666 8.444 4.666 14.666 0 5.334-1.78 10.446-5.332 15.334-6.668 9.334-18 24.112-34 44.334-16 20.22-28 35.888-36 47 11.554 22.22 20.666 44 27.332 65.332l122 18.668c5.78 0.888 10.446 3.666 14 8.332 3.556 4.668 5.334 9.89 5.334 15.668zM650 389.5c-0.666 0.334-2.25 1.916-4.75 4.75s-4.75 4.416-6.75 4.75c0.666 0 1.416-0.834 2.25-2.5s1.666-3.5 2.5-5.5c0.834-2 1.416-3.166 1.75-3.5 2-2.334 5.666-4.834 11-7.5 4.666-2 13.334-4 26-6 11.334-2.666 19.834-0.834 25.5 5.5-0.666-0.666 0.916-2.834 4.75-6.5s6.25-5.666 7.25-6c1-0.666 3.5-1.416 7.5-2.25s6.5-2.084 7.5-3.75l1-11c-4 0.334-6.916-0.834-8.75-3.5s-2.916-6.166-3.25-10.5c0 0.666-1 2-3 4 0-2.334-0.75-3.666-2.25-4s-3.416-0.166-5.75 0.5-3.834 0.834-4.5 0.5c-3.334-1-5.834-2.25-7.5-3.75s-3-4.25-4-8.25-1.666-6.5-2-7.5c-0.666-1.666-2.25-3.416-4.75-5.25s-4.084-3.584-4.75-5.25c-0.334-0.666-0.75-1.584-1.25-2.75s-1-2.25-1.5-3.25-1.166-1.916-2-2.75c-0.834-0.834-1.75-1.25-2.75-1.25s-2.166 0.834-3.5 2.5-2.584 3.334-3.75 5-1.916 2.5-2.25 2.5c-1-0.666-2-0.916-3-0.75s-1.75 0.334-2.25 0.5c-0.5 0.166-1.25 0.666-2.25 1.5s-1.834 1.416-2.5 1.75c-1 0.666-2.416 1.166-4.25 1.5s-3.25 0.666-4.25 1c5-1.666 4.834-3.5-0.5-5.5-3.334-1.334-6-1.834-8-1.5 3-1.334 4.25-3.334 3.75-6s-1.916-5-4.25-7h2.5c-0.334-1.334-1.75-2.75-4.25-4.25s-5.416-2.916-8.75-4.25c-3.334-1.334-5.5-2.334-6.5-3-2.666-1.666-8.334-3.25-17-4.75s-14.166-1.584-16.5-0.25c-1.666 2-2.416 3.75-2.25 5.25s0.834 3.834 2 7 1.75 5.25 1.75 6.25c0.334 2-0.584 4.166-2.75 6.5s-3.25 4.334-3.25 6c0 2.334 2.334 4.916 7 7.75s6.334 6.416 5 10.75c-1 2.666-3.666 5.334-8 8s-7 4.666-8 6c-1.666 2.666-1.916 5.75-0.75 9.25s2.916 6.25 5.25 8.25c0.666 0.666 0.916 1.334 0.75 2s-0.75 1.416-1.75 2.25c-1 0.834-1.916 1.5-2.75 2s-1.916 1.084-3.25 1.75l-1.5 1c-3.666 1.666-7.084 0.666-10.25-3s-5.416-8-6.75-13c-2.334-8.334-5-13.334-8-15-7.666-2.666-12.5-2.5-14.5 0.5-1.666-4.334-8.5-8.666-20.5-13-8.334-3-18-3.666-29-2 2-0.334 2-2.834 0-7.5-2.334-5-5.5-7-9.5-6 1-2 1.666-4.916 2-8.75s0.5-6.084 0.5-6.75c1-4.334 3-8.166 6-11.5 0.334-0.334 1.5-1.75 3.5-4.25s3.584-4.75 4.75-6.75 1.25-3 0.25-3c11.666 1.334 20-0.5 25-5.5 1.666-1.666 3.584-4.5 5.75-8.5s3.916-6.834 5.25-8.5c3-2 5.334-2.916 7-2.75s4.084 1.084 7.25 2.75c3.166 1.666 5.584 2.5 7.25 2.5 4.666 0.334 7.25-1.5 7.75-5.5s-0.75-7.334-3.75-10c4 0.334 4.5-2.5 1.5-8.5-1.666-2.334-3-3.834-4-4.5-4-1.334-8.5-0.5-13.5 2.5-2.666 1.334-2.334 2.666 1 4-0.334-0.334-1.916 1.416-4.75 5.25s-5.584 6.75-8.25 8.75c-2.666 2-5.334 1.166-8-2.5-0.334-0.334-1.25-2.584-2.75-6.75s-3.084-6.416-4.75-6.75c-2.666 0-5.334 2.5-8 7.5 1-2.666-0.834-5.166-5.5-7.5s-8.666-3.666-12-4c6.334-4 5-8.5-4-13.5-2.334-1.334-5.75-2.166-10.25-2.5s-7.75 0.334-9.75 2c-1.666 2.334-2.584 4.25-2.75 5.75s0.666 2.834 2.5 4 3.584 2.084 5.25 2.75c1.666 0.666 3.584 1.334 5.75 2s3.584 1.166 4.25 1.5c4.666 3.334 6 5.666 4 7-0.666 0.334-2.084 0.916-4.25 1.75s-4.084 1.584-5.75 2.25c-1.666 0.666-2.666 1.334-3 2-1 1.334-1 3.666 0 7s0.666 5.666-1 7c-1.666-1.666-3.166-4.584-4.5-8.75s-2.5-6.916-3.5-8.25c2.334 3-1.834 4-12.5 3l-5-0.5c-1.334 0-4 0.334-8 1s-7.416 0.834-10.25 0.5c-2.834-0.334-5.084-1.666-6.75-4-1.334-2.666-1.334-6 0-10 0.334-1.334 1-1.666 2-1-1.334-1-3.166-2.584-5.5-4.75s-4-3.584-5-4.25c-15.334 5-31 11.834-47 20.5 2 0.334 4 0.166 6-0.5 1.666-0.666 3.834-1.75 6.5-3.25s4.334-2.416 5-2.75c11.334-4.666 18.334-5.834 21-3.5l2.5-2.5c4.666 5.334 8 9.5 10 12.5-2.334-1.334-7.334-1.5-15-0.5-6.666 2-10.334 4-11 6 2.334 4 3.166 7 2.5 9-1.334-1-3.25-2.666-5.75-5s-4.916-4.166-7.25-5.5c-2.334-1.334-4.834-2.166-7.5-2.5-5.334 0-9 0.166-11 0.5-48.666 26.666-87.834 63.666-117.5 111 2.334 2.334 4.334 3.666 6 4 1.334 0.334 2.166 1.834 2.5 4.5s0.75 4.5 1.25 5.5 2.416 0.5 5.75-1.5c3 2.666 3.5 5.834 1.5 9.5 0.334-0.334 7.666 4.166 22 13.5 6.334 5.666 9.834 9.166 10.5 10.5 1 3.666-0.666 6.666-5 9-0.334-0.666-1.834-2.166-4.5-4.5s-4.166-3-4.5-2c-1 1.666-0.916 4.75 0.25 9.25s2.916 6.584 5.25 6.25c-2.334 0-3.916 2.666-4.75 8s-1.25 11.25-1.25 17.75-0.166 10.416-0.5 11.75l1 0.5c-1 4-0.084 9.75 2.75 17.25s6.416 10.75 10.75 9.75c-4.334 1-1 8.166 10 21.5 2 2.666 3.334 4.166 4 4.5 1 0.666 3 1.916 6 3.75s5.5 3.5 7.5 5 3.666 3.25 5 5.25c1.334 1.666 3 5.416 5 11.25s4.334 9.75 7 11.75c-0.666 2 0.916 5.334 4.75 10s5.584 8.5 5.25 11.5c-0.334 0-0.75 0.166-1.25 0.5s-0.916 0.5-1.25 0.5c1 2.334 3.584 4.666 7.75 7s6.75 4.5 7.75 6.5c0.334 1 0.666 2.666 1 5s0.834 4.166 1.5 5.5c0.666 1.334 2 1.666 4 1 0.666-6.666-3.334-17-12-31-5-8.334-7.834-13.166-8.5-14.5-1-1.666-1.916-4.25-2.75-7.75s-1.584-5.916-2.25-7.25c0.666 0 1.666 0.25 3 0.75s2.75 1.084 4.25 1.75c1.5 0.666 2.75 1.334 3.75 2s1.334 1.166 1 1.5c-1 2.334-0.666 5.25 1 8.75s3.666 6.584 6 9.25c2.334 2.666 5.166 5.834 8.5 9.5s5.334 5.834 6 6.5c2 2 4.334 5.25 7 9.75s2.666 6.75 0 6.75c3 0 6.334 1.666 10 5s6.5 6.666 8.5 10c1.666 2.666 3 7 4 13s1.834 10 2.5 12c0.666 2.334 2.084 4.584 4.25 6.75s4.25 3.75 6.25 4.75l8 4 6.5 3.5c1.666 0.666 4.75 2.416 9.25 5.25s8.084 4.75 10.75 5.75c3.334 1.334 6 2 8 2s4.416-0.416 7.25-1.25c2.834-0.834 5.084-1.416 6.75-1.75 5-0.666 9.834 1.834 14.5 7.5s8.166 9.166 10.5 10.5c12 6.334 21.166 8.166 27.5 5.5-0.666 0.334-0.584 1.584 0.25 3.75s2.166 4.75 4 7.75 3.334 5.416 4.5 7.25c1.166 1.834 2.084 3.25 2.75 4.25 1.666 2 4.666 4.5 9 7.5s7.334 5.5 9 7.5c2-1.334 3.166-2.834 3.5-4.5-1 2.666 0.166 6 3.5 10s6.334 5.666 9 5c4.666-1 7-6.334 7-16-10.334 5-18.5 2-24.5-9 0-0.334-0.416-1.25-1.25-2.75s-1.5-2.916-2-4.25-0.916-2.75-1.25-4.25c-0.334-1.5-0.334-2.75 0-3.75s1.166-1.5 2.5-1.5c3 0 4.666-0.584 5-1.75s0-3.25-1-6.25-1.666-5.166-2-6.5c-0.334-2.666-2.166-6-5.5-10s-5.334-6.5-6-7.5c-1.666 3-4.334 4.334-8 4s-6.334-1.834-8-4.5c0 0.334-0.25 1.25-0.75 2.75s-0.75 2.584-0.75 3.25c-4.334 0-6.834-0.166-7.5-0.5 0.334-1 0.75-3.916 1.25-8.75s1.084-8.584 1.75-11.25c0.334-1.334 1.25-3.334 2.75-6s2.75-5.084 3.75-7.25c1-2.166 1.666-4.25 2-6.25s-0.416-3.584-2.25-4.75-4.75-1.584-8.75-1.25c-6.334 0.334-10.666 3.666-13 10-0.334 1-0.834 2.75-1.5 5.25s-1.5 4.416-2.5 5.75c-1 1.334-2.5 2.5-4.5 3.5-2.334 1-6.334 1.334-12 1s-9.666-1.166-12-2.5c-4.334-2.666-8.084-7.5-11.25-14.5s-4.75-13.166-4.75-18.5c0-3.334 0.416-7.75 1.25-13.25s1.334-9.666 1.5-12.5c0.166-2.834-0.75-6.916-2.75-12.25 1-0.666 2.5-2.25 4.5-4.75s3.666-4.25 5-5.25c0.666-0.334 1.416-0.584 2.25-0.75s1.584-0.166 2.25 0c0.666 0.166 1.334-0.084 2-0.75s1.166-1.666 1.5-3c-0.334-0.334-1-0.834-2-1.5-1-1-1.666-1.5-2-1.5 2.334 1 7.084 0.75 14.25-0.75s11.75-1.25 13.75 0.75c5 3.666 8.666 3.334 11-1 0-0.334-0.416-1.916-1.25-4.75s-0.916-5.084-0.25-6.75c1.666 9 6.5 10.5 14.5 4.5 1 1 3.584 1.834 7.75 2.5s7.084 1.5 8.75 2.5c1 0.666 2.166 1.584 3.5 2.75s2.25 1.916 2.75 2.25c0.5 0.334 1.334 0.25 2.5-0.25s2.584-1.584 4.25-3.25c3.334 4.666 5.334 8.666 6 12 3.666 13.334 6.834 20.666 9.5 22 2.334 1 4.166 1.334 5.5 1s2.084-1.916 2.25-4.75c0.166-2.834 0.166-5.166 0-7s-0.416-3.916-0.75-6.25l-0.5-4v-9l-0.5-4c-5-1-8.084-3-9.25-6s-0.916-6.084 0.75-9.25c1.666-3.166 4.166-6.25 7.5-9.25 0.334-0.334 1.666-0.916 4-1.75s4.916-1.916 7.75-3.25c2.834-1.334 4.916-2.666 6.25-4 7-6.334 9.5-12.166 7.5-17.5 2.334 0 4.166-1.5 5.5-4.5-0.334 0-1.166-0.5-2.5-1.5s-2.584-1.834-3.75-2.5c-1.166-0.666-1.916-1-2.25-1 3-1.666 3.334-4.334 1-8 1.666-1 2.916-2.834 3.75-5.5s2.084-4.334 3.75-5c3 4 6.5 4.334 10.5 1 2.334-2.666 2.5-5.334 0.5-8 1.666-2.334 5.084-4.084 10.25-5.25s8.25-2.75 9.25-4.75c2.334 0.666 3.666 0.334 4-1s0.5-3.334 0.5-6 0.5-4.666 1.5-6c1.334-1.666 3.834-3.166 7.5-4.5s5.834-2.166 6.5-2.5l8.5-5.5c1-1.334 1-2 0-2 6 0.666 11.166-1.166 15.5-5.5 3.334-3.666 2.334-7-3-10 1-2 0.5-3.584-1.5-4.75s-4.5-2.084-7.5-2.75c1-0.334 2.916-0.416 5.75-0.25s4.584-0.084 5.25-0.75c5-3.334 3.834-6-3.5-8-5.666-1.666-12.834 0.334-21.5 6zM568.5 828c68.666-12 127.166-43.5 175.5-94.5-1-1-3.084-1.75-6.25-2.25s-5.25-1.084-6.25-1.75c-6-2.334-10-3.666-12-4 0.334-2.334-0.084-4.5-1.25-6.5s-2.5-3.5-4-4.5-3.584-2.334-6.25-4-4.5-2.834-5.5-3.5c-0.666-0.666-1.834-1.666-3.5-3s-2.834-2.25-3.5-2.75c-0.666-0.5-1.916-1.25-3.75-2.25s-3.25-1.334-4.25-1c-1 0.334-2.666 0.5-5 0.5l-1.5 0.5c-1 0.334-1.916 0.75-2.75 1.25s-1.75 1-2.75 1.5-1.666 1-2 1.5c-0.334 0.5-0.334 0.916 0 1.25-7-5.666-13-9.334-18-11-1.666-0.334-3.5-1.25-5.5-2.75s-3.75-2.666-5.25-3.5c-1.5-0.834-3.166-1.084-5-0.75s-3.75 1.5-5.75 3.5c-1.666 1.666-2.666 4.166-3 7.5s-0.666 5.5-1 6.5c-2.334-1.666-2.334-4.584 0-8.75s2.666-7.25 1-9.25c-1-2-2.75-2.75-5.25-2.25s-4.5 1.25-6 2.25-3.416 2.416-5.75 4.25-3.834 2.916-4.5 3.25c-0.666 0.334-2.084 1.25-4.25 2.75s-3.584 2.75-4.25 3.75c-1 1.334-2 3.334-3 6s-1.834 4.5-2.5 5.5c-0.666-1.334-2.584-2.416-5.75-3.25s-4.75-1.75-4.75-2.75c0.666 3.334 1.334 9.166 2 17.5s1.5 14.666 2.5 19c2.334 10.334 0.334 18.334-6 24-9 8.334-13.834 15-14.5 20-1.334 7.334 0.666 11.666 6 13 0 2.334-1.334 5.75-4 10.25s-3.834 8.084-3.5 10.75c0 2 0.334 4.666 1 8z" />
		</symbol>
		<symbol id="icon-adam-hobson-2" viewBox="0 0 1024 1024">
			<title>Adam Hobson</title>
			<path class="path1" d="M1025 440.334c0-5.778-1.778-11-5.334-15.668-3.554-4.666-8.22-7.444-14-8.332l-122-18.668c-6.666-21.332-15.778-43.112-27.332-65.332 8-11.112 20-26.78 36-47 16-20.222 27.332-35 34-44.334 3.552-4.888 5.332-10 5.332-15.334 0-6.222-1.554-11.11-4.666-14.666-16-22.666-52.666-60.444-110-113.334-5.334-4.446-10.886-6.666-16.666-6.666-6.668 0-12 2-16 6l-94.668 71.334c-18.22-9.334-38.22-17.556-60-24.668l-18.666-122.666c-0.446-5.778-3-10.554-7.666-14.334-4.668-3.778-10.114-5.666-16.334-5.666h-148c-12.888 0-20.888 6.22-24 18.666-5.778 22.224-12.222 63.556-19.334 124-20.886 6.668-41.11 15.114-60.666 25.334l-92-71.334c-5.778-4.446-11.554-6.666-17.334-6.666-9.78 0-30.78 15.888-63 47.666-32.222 31.778-54.11 55.668-65.666 71.668-4 5.778-6 10.888-6 15.332 0 5.334 2.222 10.668 6.666 16 29.778 36 53.554 66.668 71.334 92-11.112 20.446-19.78 40.89-26 61.334l-124 18.666c-4.886 0.888-9.112 3.778-12.666 8.668-3.554 4.888-5.334 10-5.334 15.332v148c0 5.778 1.78 11 5.334 15.668 3.554 4.666 8.22 7.444 14 8.332l122 18c6.222 21.78 15.332 43.78 27.332 66-8 11.112-20 26.78-36 47-16 20.222-27.332 35-34 44.334-3.552 4.888-5.332 10-5.332 15.334 0 5.778 1.554 10.888 4.666 15.332 17.334 24 54 61.334 110 112 4.886 4.89 10.446 7.334 16.666 7.334 6.668 0 12.222-2 16.668-6l94-71.334c18.22 9.334 38.22 17.556 60 24.668l18.666 122.666c0.446 5.778 3 10.554 7.666 14.334 4.668 3.778 10.114 5.666 16.334 5.666h148c12.888 0 20.888-6.222 24-18.666 5.778-22.22 12.222-63.556 19.334-124 20.886-6.668 41.11-15.114 60.666-25.334l92 72c6.222 4 12 6 17.334 6 9.778 0 30.666-15.778 62.666-47.334 32-31.554 54-55.554 66-72 4-4.444 6-9.552 6-15.332 0-5.778-2.222-11.334-6.666-16.668-32-39.11-55.778-69.78-71.334-92 8.888-16.446 17.556-36.666 26-60.666l123.334-18.666c5.332-0.888 9.778-3.778 13.332-8.668 3.554-4.888 5.334-10 5.334-15.332v-148zM513.008 177c185.572 0 335.992 150.436 335.992 336.008s-150.42 335.992-335.992 335.992c-185.572 0-336.008-150.42-336.008-335.992s150.436-336.008 336.008-336.008zM225.984 489.004h95.5c1.6-39.724 7.15-77.54 15.96-112.26-22.294-7.82-42.87-17.088-61.33-27.576-27.948 40.33-45.868 88.152-50.13 139.836zM392.564 251.318c-32.7 15.076-62.094 36.096-86.792 61.68 13.752 7.124 28.96 13.54 45.392 19.136 11.23-30.708 25.234-58.006 41.4-80.82zM489.004 489.002v-84.48c-37.444-1.51-73.194-6.53-106.256-14.48-7.194 30.436-11.8 63.81-13.248 98.96h119.504zM489.004 228.978c-38.11 12.79-71.144 55.52-92.852 115.68 28.78 6.386 60.034 10.494 92.852 11.85v-127.528zM800.030 489.004c-4.26-51.684-22.176-99.5-50.13-139.836-18.46 10.488-39.034 19.754-61.33 27.58 8.808 34.72 14.36 72.532 15.96 112.256h95.5zM633.446 251.32c16.164 22.81 30.168 50.108 41.404 80.816 16.432-5.596 31.634-12.012 45.4-19.134-24.706-25.584-54.090-46.604-86.804-61.68zM537.020 489h119.488c-1.45-35.15-6.040-68.524-13.234-98.96-33.068 7.952-68.82 12.97-106.256 14.48v84.48zM537.018 228.976v127.53c32.8-1.356 64.066-5.464 92.84-11.852-21.7-60.16-54.74-102.888-92.84-115.68zM800.028 537.014h-95.5c-1.6 39.714-7.152 77.536-15.96 112.248 22.294 7.832 42.87 17.1 61.33 27.58 27.956-40.324 45.868-88.152 50.13-139.83zM633.444 774.68c32.714-15.060 62.1-36.080 86.806-61.676-13.768-7.12-28.97-13.544-45.4-19.14-11.24 30.716-25.24 58.028-41.406 80.816zM537.020 537.020v84.464c37.436 1.508 73.186 6.54 106.254 14.48 7.194-30.44 11.784-63.804 13.234-98.946h-119.488zM537.020 797.038c38.1-12.788 71.14-55.52 92.84-115.692-28.774-6.38-60.040-10.48-92.84-11.84v127.532zM225.98 537.020c4.264 51.676 22.18 99.504 50.13 139.828 18.46-10.48 39.036-19.748 61.33-27.58-8.808-34.712-14.36-72.534-15.96-112.25h-95.5zM392.56 774.686c-16.166-22.788-30.17-50.1-41.4-80.816-16.43 5.596-31.64 12.020-45.392 19.14 24.7 25.594 54.090 46.614 86.79 61.676zM489.002 537.016h-119.502c1.45 35.14 6.054 68.506 13.248 98.94 33.060-7.932 68.812-12.966 106.256-14.476v-84.46zM489.004 797.040v-127.534c-32.82 1.36-64.074 5.46-92.852 11.84 21.708 60.176 54.74 102.906 92.852 115.694z" />
		</symbol>
		<symbol id="icon-adam-hobson-3" viewBox="0 0 1024 1024">
			<title>Adam Hobson</title>
			<path class="path1" d="M1025 440.334v148c0 5.332-1.78 10.444-5.334 15.332-3.554 4.89-8 7.78-13.332 8.668l-123.334 18.666c-8.444 24-17.112 44.22-26 60.666 15.556 22.22 39.334 52.89 71.334 92 4.444 5.334 6.666 10.89 6.666 16.668 0 5.78-2 10.888-6 15.332-12 16.446-34 40.446-66 72-32 31.556-52.888 47.334-62.666 47.334-5.334 0-11.112-2-17.334-6l-92-72c-19.556 10.22-39.78 18.666-60.666 25.334-7.112 60.444-13.556 101.78-19.334 124-3.112 12.444-11.112 18.666-24 18.666h-148c-6.22 0-11.666-1.888-16.334-5.666-4.666-3.78-7.22-8.556-7.666-14.334l-18.666-122.666c-21.78-7.112-41.78-15.334-60-24.668l-94 71.334c-4.446 4-10 6-16.668 6-6.22 0-11.78-2.444-16.666-7.334-56-50.666-92.666-88-110-112-3.112-4.444-4.666-9.554-4.666-15.332 0-5.334 1.78-10.446 5.332-15.334 6.668-9.334 18-24.112 34-44.334 16-20.22 28-35.888 36-47-12-22.22-21.11-44.22-27.332-66l-122-18c-5.78-0.888-10.446-3.666-14-8.332-3.554-4.668-5.334-9.89-5.334-15.668v-148c0-5.332 1.78-10.444 5.334-15.332 3.554-4.89 7.78-7.78 12.666-8.668l124-18.666c6.22-20.444 14.888-40.888 26-61.334-17.78-25.332-41.556-56-71.334-92-4.444-5.332-6.666-10.666-6.666-16 0-4.444 2-9.554 6-15.332 11.556-16 33.444-39.89 65.666-71.668 32.22-31.78 53.22-47.666 63-47.666 5.78 0 11.556 2.22 17.334 6.666l92 71.334c19.556-10.22 39.78-18.666 60.666-25.334 7.112-60.444 13.556-101.776 19.334-124 3.112-12.446 11.112-18.666 24-18.666h148c6.22 0 11.666 1.888 16.334 5.666 4.666 3.78 7.22 8.556 7.666 14.334l18.666 122.666c21.78 7.112 41.78 15.334 60 24.668l94.668-71.334c4-4 9.332-6 16-6 5.78 0 11.332 2.22 16.666 6.666 57.334 52.89 94 90.668 110 113.334 3.112 3.556 4.666 8.444 4.666 14.666 0 5.334-1.78 10.446-5.332 15.334-6.668 9.334-18 24.112-34 44.334-16 20.22-28 35.888-36 47 11.554 22.22 20.666 44 27.332 65.332l122 18.668c5.78 0.888 10.446 3.666 14 8.332 3.556 4.668 5.334 9.89 5.334 15.668zM184.98 485.574h109.144c1.83-45.396 8.172-88.616 18.24-128.296-25.48-8.94-48.994-19.53-70.090-31.516-31.94 46.090-52.42 100.744-57.292 159.812zM375.362 213.934c-37.372 17.228-70.966 41.252-99.192 70.49 15.716 8.14 33.1 15.474 51.876 21.87 12.834-35.094 28.84-66.292 47.314-92.366zM485.576 485.572v-96.548c-42.794-1.726-83.65-7.464-121.436-16.55-8.22 34.784-13.486 72.926-15.14 113.1h136.576zM485.576 188.402c-43.554 14.616-81.308 63.45-106.116 132.206 32.89 7.3 68.61 11.992 106.116 13.54v-145.74zM841.036 485.578c-4.87-59.068-25.346-113.714-57.294-159.812-21.094 11.986-44.608 22.576-70.088 31.52 10.066 39.68 16.41 82.894 18.24 128.292h109.14zM650.654 213.938c18.474 26.070 34.48 57.268 47.32 92.36 18.78-6.394 36.152-13.726 51.886-21.866-28.24-29.24-61.82-53.26-99.208-70.49zM540.452 485.574h136.56c-1.66-40.172-6.906-78.314-15.128-113.1-37.792 9.090-78.65 14.826-121.434 16.55v96.552zM540.45 188.406v145.75c37.484-1.55 73.22-6.244 106.1-13.546-24.8-68.754-62.56-117.586-106.1-132.206zM841.030 540.448h-109.14c-1.83 45.388-8.174 88.614-18.24 128.284 25.48 8.95 48.994 19.54 70.090 31.52 31.95-46.084 52.42-100.746 57.292-159.806zM650.652 812.066c37.386-17.208 70.97-41.232 99.206-70.484-15.74-8.14-33.112-15.48-51.888-21.874-12.846 35.106-28.846 66.32-47.32 92.36zM540.45 540.46v96.53c42.784 1.726 83.64 7.476 121.432 16.55 8.22-34.788 13.468-72.92 15.126-113.080h-136.56zM540.448 837.624c43.544-14.614 81.304-63.45 106.104-132.22-32.884-7.29-68.616-11.976-106.1-13.53v145.75zM184.976 540.454c4.87 59.056 25.346 113.716 57.288 159.8 21.1-11.976 44.614-22.568 70.092-31.52-10.066-39.67-16.412-82.896-18.24-128.284h-109.136zM375.354 812.070c-18.476-26.044-34.48-57.26-47.314-92.36-18.78 6.394-36.16 13.736-51.876 21.872 28.228 29.254 61.816 53.276 99.188 70.49zM485.572 540.448h-136.572c1.66 40.16 6.92 78.294 15.14 113.076 37.784-9.064 78.64-14.82 121.436-16.54v-96.528zM485.576 837.622v-145.762c-37.508 1.554-73.228 6.24-106.116 13.532 24.808 68.772 62.56 117.606 106.116 132.22z" />
		</symbol>
		<symbol id="icon-twitter" viewBox="0 0 951 1024">
			<title>Twitter</title>
			<path class="path1" d="M925.714 233.143q-38.286 56-92.571 95.429 0.571 8 0.571 24 0 74.286-21.714 148.286t-66 142-105.429 120.286-147.429 83.429-184.571 31.143q-154.857 0-283.429-82.857 20 2.286 44.571 2.286 128.571 0 229.143-78.857-60-1.143-107.429-36.857t-65.143-91.143q18.857 2.857 34.857 2.857 24.571 0 48.571-6.286-64-13.143-106-63.714t-42-117.429v-2.286q38.857 21.714 83.429 23.429-37.714-25.143-60-65.714t-22.286-88q0-50.286 25.143-93.143 69.143 85.143 168.286 136.286t212.286 56.857q-4.571-21.714-4.571-42.286 0-76.571 54-130.571t130.571-54q80 0 134.857 58.286 62.286-12 117.143-44.571-21.143 65.714-81.143 101.714 53.143-5.714 106.286-28.571z" />
		</symbol>
		<symbol id="icon-linkedin" viewBox="0 0 878 1024">
			<title>LinkedIn</title>
			<path class="path1" d="M199.429 357.143v566.286h-188.571v-566.286h188.571zM211.429 182.286q0.571 41.714-28.857 69.714t-77.429 28h-1.143q-46.857 0-75.429-28t-28.571-69.714q0-42.286 29.429-70t76.857-27.714 76 27.714 29.143 70zM877.714 598.857v324.571h-188v-302.857q0-60-23.143-94t-72.286-34q-36 0-60.286 19.714t-36.286 48.857q-6.286 17.143-6.286 46.286v316h-188q1.143-228 1.143-369.714t-0.571-169.143l-0.571-27.429h188v82.286h-1.143q11.429-18.286 23.429-32t32.286-29.714 49.714-24.857 65.429-8.857q97.714 0 157.143 64.857t59.429 190z" />
		</symbol>
		<symbol id="icon-github" viewBox="0 0 878 1024">
			<title>GitHub</title>
			<path class="path1" d="M877.714 512q0 143.429-83.714 258t-216.286 158.571q-15.429 2.857-22.571-4t-7.143-17.143v-120.571q0-55.429-29.714-81.143 32.571-3.429 58.571-10.286t53.714-22.286 46.286-38 30.286-60 11.714-86q0-69.143-45.143-117.714 21.143-52-4.571-116.571-16-5.143-46.286 6.286t-52.571 25.143l-21.714 13.714q-53.143-14.857-109.714-14.857t-109.714 14.857q-9.143-6.286-24.286-15.429t-47.714-22-49.143-7.714q-25.143 64.571-4 116.571-45.143 48.571-45.143 117.714 0 48.571 11.714 85.714t30 60 46 38.286 53.714 22.286 58.571 10.286q-22.857 20.571-28 58.857-12 5.714-25.714 8.571t-32.571 2.857-37.429-12.286-31.714-35.714q-10.857-18.286-27.714-29.714t-28.286-13.714l-11.429-1.714q-12 0-16.571 2.571t-2.857 6.571 5.143 8 7.429 6.857l4 2.857q12.571 5.714 24.857 21.714t18 29.143l5.714 13.143q7.429 21.714 25.143 35.143t38.286 17.143 39.714 4 31.714-2l13.143-2.286q0 21.714 0.286 50.857t0.286 30.857q0 10.286-7.429 17.143t-22.857 4q-132.571-44-216.286-158.571t-83.714-258q0-119.429 58.857-220.286t159.714-159.714 220.286-58.857 220.286 58.857 159.714 159.714 58.857 220.286z" />
		</symbol>
		<symbol id="icon-makerbase" viewBox="0 0 1896 1024">
			<title>Makerbase</title>
			<path class="path1" d="M608.683 0h264.41l-183.704 490.268h-490.278l99.072-264.401c14.554-40.382 115.314-225.868 310.5-225.868z" />
			<path class="path2" d="M673.972 530.963l-84.632 225.868c-22.063 54.822-108.345 264.401-330.43 264.401h-258.911l183.704-490.268h490.268z" />
			<path class="path3" d="M1322.705 242.385l-92.881 247.884h-490.268l183.704-490.268h283.051c12.032 0 71.168 11.036 114.773 75.482 43.615 64.455 1.621 166.903 1.621 166.903z" />
			<path class="path4" d="M1218.087 530.963l-183.704 490.268h-278.793c-4.532 0-80.422-9.766-123.961-84.063-26.463-45.151-11.804-109.103-6.324-128.91 2.769-9.984 6.021-19.778 9.633-29.412l92.881-247.884h490.268z" />
			<path class="path5" d="M1737.595 0c44.089 0 89.297 23.884 120.567 57.742 26.662 28.871 37.812 65.346 35.745 101.755-1.318 23.097-7.196 45.34-15.076 66.37-0.028 0.066-99.072 264.401-99.072 264.401h-490.278l183.704-490.268h264.41z" />
			<path class="path6" d="M1765.836 530.963l-183.704 490.268h-218.861c-26.15 0-50.546 1.299-76.667-6.191-17.721-5.082-35.271-11.842-51.522-21.333-27.544-16.081-49.351-40.069-59.923-69.841-19.921-56.083-2.92-117.134 15.777-167.035l84.632-225.868h490.268z" />
		</symbol>
		<symbol id="icon-stack-exchange" viewBox="0 0 731 1024">
			<title>Stack Exchange</title>
			<path class="path1" d="M719.429 716v37.714q0 48.571-32.857 82.571t-79.143 34h-32.571l-148.571 153.714v-153.714h-302.286q-46.286 0-79.143-34t-32.857-82.571v-37.714h707.429zM719.429 529.714v145.714h-707.429v-145.714h707.429zM719.429 342.286v145.714h-707.429v-145.714h707.429zM719.429 262.286v38.286h-707.429v-38.286q0-48 32.857-82t79.143-34h483.429q46.286 0 79.143 34t32.857 82z" />
		</symbol>
		<symbol id="icon-stack-overflow" viewBox="0 0 805 1024">
			<title>Stack Overflow</title>
			<path class="path1" d="M530.286 800.571v86.286l-404 0.571v-86.286zM668 602.857v400.571l-0.571 20v0.571l-667.429-0.571v-420.571h69.143v353.143h530.286v-353.143h68.571zM137.714 653.143l402.286 37.143-7.429 85.714-402.857-37.143zM176.571 472.571l390.286 104.571-22.286 83.429-390.286-104.571zM269.714 273.143l348 205.714-44 74.286-348-205.714zM475.429 84l227.429 334.286-70.857 48.571-228-333.714zM734.286 0l69.143 398.286-85.143 14.857-69.143-398.286z" />
		</symbol>
		<symbol id="icon-pinterest" viewBox="0 0 878 1024">
			<title>Pinterest</title>
			<path class="path1" d="M877.714 512q0 119.429-58.857 220.286t-159.714 159.714-220.286 58.857q-63.429 0-124.571-18.286 33.714-53.143 44.571-93.714 5.143-19.429 30.857-120.571 11.429 22.286 41.714 38.571t65.143 16.286q69.143 0 123.429-39.143t84-107.714 29.714-154.286q0-65.143-34-122.286t-98.571-93.143-145.714-36q-60 0-112 16.571t-88.286 44-62.286 63.143-38.286 74-12.286 76.571q0 59.429 22.857 104.571t66.857 63.429q17.143 6.857 21.714-11.429 1.143-4 4.571-17.714t4.571-17.143q3.429-13.143-6.286-24.571-29.143-34.857-29.143-86.286 0-86.286 59.714-148.286t156.286-62q86.286 0 134.571 46.857t48.286 121.714q0 97.143-39.143 165.143t-100.286 68q-34.857 0-56-24.857t-13.143-59.714q4.571-20 15.143-53.429t17.143-58.857 6.571-43.143q0-28.571-15.429-47.429t-44-18.857q-35.429 0-60 32.571t-24.571 81.143q0 41.714 14.286 69.714l-56.571 238.857q-9.714 40-7.429 101.143-117.714-52-190.286-160.571t-72.571-241.714q0-119.429 58.857-220.286t159.714-159.714 220.286-58.857 220.286 58.857 159.714 159.714 58.857 220.286z" />
		</symbol>
		<symbol id="icon-feed" viewBox="0 0 805 1024">
			<title>Feed Icon</title>
			<path class="path1" d="M219.429 768q0 45.714-32 77.714t-77.714 32-77.714-32-32-77.714 32-77.714 77.714-32 77.714 32 32 77.714zM512 838.286q1.143 16-9.714 27.429-10.286 12-26.857 12h-77.143q-14.286 0-24.571-9.429t-11.429-23.714q-12.571-130.857-105.429-223.714t-223.714-105.429q-14.286-1.143-23.714-11.429t-9.429-24.571v-77.143q0-16.571 12-26.857 9.714-9.714 24.571-9.714h2.857q91.429 7.429 174.857 46t148 103.714q65.143 64.571 103.714 148t46 174.857zM804.571 839.429q1.143 15.429-10.286 26.857-10.286 11.429-26.286 11.429h-81.714q-14.857 0-25.429-10t-11.143-24.286q-6.857-122.857-57.714-233.429t-132.286-192-192-132.286-233.429-58.286q-14.286-0.571-24.286-11.143t-10-24.857v-81.714q0-16 11.429-26.286 10.286-10.286 25.143-10.286h1.714q149.714 7.429 286.571 68.571t243.143 168q106.857 106.286 168 243.143t68.571 286.571z" />
		</symbol>
		<symbol id="icon-external" viewBox="0 0 1024 1024">
			<title>External Link</title>
			<path class="path1" d="M804.571 530.286v182.857q0 68-48.286 116.286t-116.286 48.286h-475.429q-68 0-116.286-48.286t-48.286-116.286v-475.429q0-68 48.286-116.286t116.286-48.286h402.286q8 0 13.143 5.143t5.143 13.143v36.571q0 8-5.143 13.143t-13.143 5.143h-402.286q-37.714 0-64.571 26.857t-26.857 64.571v475.429q0 37.714 26.857 64.571t64.571 26.857h475.429q37.714 0 64.571-26.857t26.857-64.571v-182.857q0-8 5.143-13.143t13.143-5.143h36.571q8 0 13.143 5.143t5.143 13.143zM1024 36.571v292.571q0 14.857-10.857 25.714t-25.714 10.857-25.714-10.857l-100.571-100.571-372.571 372.571q-5.714 5.714-13.143 5.714t-13.143-5.714l-65.143-65.143q-5.714-5.714-5.714-13.143t5.714-13.143l372.571-372.571-100.571-100.571q-10.857-10.857-10.857-25.714t10.857-25.714 25.714-10.857h292.571q14.857 0 25.714 10.857t10.857 25.714z"></path>
		</symbol>
		<symbol id="icon-info" viewBox="0 0 878 1024">
			<title>Information</title>
			<path class="path1" d="M585.143 786.286v-91.429q0-8-5.143-13.143t-13.143-5.143h-54.857v-292.571q0-8-5.143-13.143t-13.143-5.143h-182.857q-8 0-13.143 5.143t-5.143 13.143v91.429q0 8 5.143 13.143t13.143 5.143h54.857v182.857h-54.857q-8 0-13.143 5.143t-5.143 13.143v91.429q0 8 5.143 13.143t13.143 5.143h256q8 0 13.143-5.143t5.143-13.143zM512 274.286v-91.429q0-8-5.143-13.143t-13.143-5.143h-109.714q-8 0-13.143 5.143t-5.143 13.143v91.429q0 8 5.143 13.143t13.143 5.143h109.714q8 0 13.143-5.143t5.143-13.143zM877.714 512q0 119.429-58.857 220.286t-159.714 159.714-220.286 58.857-220.286-58.857-159.714-159.714-58.857-220.286 58.857-220.286 159.714-159.714 220.286-58.857 220.286 58.857 159.714 159.714 58.857 220.286z"></path>
		</symbol>
		<symbol id="icon-warn" viewBox="0 0 1024 1024">
			<title>Warning</title>
			<path class="path1" d="M585.143 785.714v-108.571q0-8-5.429-13.429t-12.857-5.429h-109.714q-7.429 0-12.857 5.429t-5.429 13.429v108.571q0 8 5.429 13.429t12.857 5.429h109.714q7.429 0 12.857-5.429t5.429-13.429zM584 572l10.286-262.286q0-6.857-5.714-10.857-7.429-6.286-13.714-6.286h-125.714q-6.286 0-13.714 6.286-5.714 4-5.714 12l9.714 261.143q0 5.714 5.714 9.429t13.714 3.714h105.714q8 0 13.429-3.714t6-9.429zM576 38.286l438.857 804.571q20 36-1.143 72-9.714 16.571-26.571 26.286t-36.286 9.714h-877.714q-19.429 0-36.286-9.714t-26.571-26.286q-21.143-36-1.143-72l438.857-804.571q9.714-17.714 26.857-28t37.143-10.286 37.143 10.286 26.857 28z"></path>
		</symbol>
	</defs>
</svg>
